<?xml version="1.0" encoding="UTF-8" standalone="no"?>
<!-- Created with Inkscape (http://www.inkscape.org/) -->

<svg
   xmlns:dc="http://purl.org/dc/elements/1.1/"
   xmlns:cc="http://creativecommons.org/ns#"
   xmlns:rdf="http://www.w3.org/1999/02/22-rdf-syntax-ns#"
   xmlns:svg="http://www.w3.org/2000/svg"
   xmlns="http://www.w3.org/2000/svg"
   version="1.1"
   width="744.09448"
   height="1052.3622"
   id="svg2">
  <defs
     id="defs4" />
  <metadata
     id="metadata7">
    <rdf:RDF>
      <cc:Work
         rdf:about="">
        <dc:format>image/svg+xml</dc:format>
        <dc:type
           rdf:resource="http://purl.org/dc/dcmitype/StillImage" />
        <dc:title></dc:title>
      </cc:Work>
    </rdf:RDF>
  </metadata>
  <g
     id="layer4"
     style="display:inline">
    <path
       d="m 345.3125,366.29968 0.10509,13.85008 -0.60547,3.64991 27.375,0 0.039,8.88002 -28.68312,-0.004 -0.42898,3.06776 0.12486,41.17177 -2.17679,2.35526 0,21.25986 3.37589,-0.0199 0.0467,-9.22482 4.48407,0.0453 0.002,16.03263 -14.87024,0.0941 -0.125,-28.18713 6.83539,-2.35526 0,-37.62845 -1e-5,-3.54332 2.30316,-15.59375 -0.23943,-12.10008 -48.62501,0.3125 -0.0512,8.50665 -4.5,0 -0.19879,-10.44415 53.27371,-0.0625"
       id="path6464"
       style="fill:none;stroke:#ff0000;stroke-width:0.001;stroke-linecap:butt;stroke-linejoin:miter;stroke-miterlimit:4;stroke-opacity:1;stroke-dasharray:none;display:inline" />
    <path
       d="m 353.45621,442.96872 -2.25001,-0.008 0,-3.69 -5.74025,-2.80011 -0.0484,-40.72692 2.30313,0 0,3.54331 4.94525,10.18361 0,27 0.79023,2.80011 z"
       id="path6488"
       style="fill:none;stroke:#ff0000;stroke-width:0.001;stroke-linecap:butt;stroke-linejoin:miter;stroke-miterlimit:4;stroke-opacity:1;stroke-dasharray:none" />
    <path
       d="m 347.72068,395.74369 2.30323,-1.8e-4 0,3.54331 9.84207,10.18361 0.34022,33.49011 -2.24999,0 -10e-6,-3.69 -5.29027,-2.79993"
       id="path6490"
       style="fill:none;stroke:#ff0000;stroke-width:0.001;stroke-linecap:butt;stroke-linejoin:miter;stroke-miterlimit:4;stroke-opacity:1;stroke-dasharray:none" />
    <path
       d="m 350.02391,395.74351 2.30317,0 0,3.54331 14.73891,10.18361 -10e-6,27 -7.20001,0"
       id="path6492"
       style="fill:none;stroke:#ff0000;stroke-width:0.001;stroke-linecap:butt;stroke-linejoin:miter;stroke-miterlimit:4;stroke-opacity:1;stroke-dasharray:none" />
    <path
       d="m 352.32708,395.74351 2.30316,0 19.63576,13.72692 -1e-5,27 -7.20001,0"
       id="path6494"
       style="fill:none;stroke:#ff0000;stroke-width:0.001;stroke-linecap:butt;stroke-linejoin:miter;stroke-miterlimit:4;stroke-opacity:1;stroke-dasharray:none" />
    <path
       d="m 352.41838,383.69873 -0.0913,-7.09224 2.30316,0 7.05823,-1.64334 10.55907,-0.0535"
       id="path6496"
       style="fill:none;stroke:#ff0000;stroke-width:0.001;stroke-linecap:butt;stroke-linejoin:miter;stroke-miterlimit:4;stroke-opacity:1;stroke-dasharray:none" />
    <path
       d="m 340.81127,399.28682 -2.30316,0 -0.10186,-9.48714 -14.125,0 -13.95253,5.06915 -4.5,0 -0.17678,-4.49999 4.67678,0 13.55577,-2.56966 16.80178,-0.0625 z"
       id="path6498"
       style="fill:none;stroke:#ff0000;stroke-width:0.001;stroke-linecap:butt;stroke-linejoin:miter;stroke-miterlimit:4;stroke-opacity:1;stroke-dasharray:none" />
    <path
       d="m 340.68627,387.73668 0.12499,-11.13022 -2.30316,0 0.19605,9.04241 -32.87543,0.21996 -0.17678,4.50001"
       id="path6500"
       style="fill:none;stroke:#ff0000;stroke-width:0.001;stroke-linecap:butt;stroke-linejoin:miter;stroke-miterlimit:4;stroke-opacity:1;stroke-dasharray:none" />
    <path
       d="m 338.5081,376.60646 -2.30312,-1e-5 0.0243,6.92109 -5.39169,0.0884 -20.50887,-2.24711 -4.5,0 0,4.5"
       id="path6502"
       style="fill:none;stroke:#ff0000;stroke-width:0.001;stroke-linecap:butt;stroke-linejoin:miter;stroke-miterlimit:4;stroke-opacity:1;stroke-dasharray:none" />
    <path
       d="m 336.20498,376.60645 -2.3032,1e-5 0,3.5433 -5.36229,0.019 -18.21077,-3.29997 -4.5,0 0,4.50004"
       id="path6504"
       style="fill:none;stroke:#ff0000;stroke-width:0.001;stroke-linecap:butt;stroke-linejoin:miter;stroke-miterlimit:4;stroke-opacity:1;stroke-dasharray:none" />
    <path
       d="M 333.90178,376.60646 z"
       id="path6506"
       style="fill:none;stroke:#ff0000;stroke-width:0.001;stroke-linecap:butt;stroke-linejoin:miter;stroke-miterlimit:4;stroke-opacity:1;stroke-dasharray:none" />
    <path
       d="m 333.90178,376.60646 -2.30316,0 -21.2699,-4.23762 -4.5,0 0,4.49995"
       id="path6510"
       style="fill:none;stroke:#ff0000;stroke-width:0.001;stroke-linecap:butt;stroke-linejoin:miter;stroke-miterlimit:4;stroke-opacity:1;stroke-dasharray:none" />
    <path
       d="m 338.50811,399.28682 -2.30316,0 0.0138,-7.73714 -11.96875,0 -13.92128,7.81915 -4.5,0 0,-4.5"
       id="path6512"
       style="fill:none;stroke:#ff0000;stroke-width:0.001;stroke-linecap:butt;stroke-linejoin:miter;stroke-miterlimit:4;stroke-opacity:1;stroke-dasharray:none" />
    <path
       d="m 336.20495,399.28682 -2.30316,0 0.004,-5.98714 -8.875,0.0312 -14.70253,10.5379 -4.5,0 4.6e-4,-4.49995"
       id="path6514"
       style="fill:none;stroke:#ff0000;stroke-width:0.001;stroke-linecap:butt;stroke-linejoin:miter;stroke-miterlimit:4;stroke-opacity:1;stroke-dasharray:none" />
    <path
       d="m 333.90179,399.28682 -8.19395,0 -15.37911,9.08201 -4.50047,-5e-5 0,-4.5"
       id="path6516"
       style="fill:none;stroke:#ff0000;stroke-width:0.001;stroke-linecap:butt;stroke-linejoin:miter;stroke-miterlimit:4;stroke-opacity:1;stroke-dasharray:none" />
    <path
       d="m 343.11405,380.14974 -2.30277,4e-5 0,-12.1001"
       id="path6518"
       style="fill:none;stroke:#ff0000;stroke-width:0.001;stroke-linecap:butt;stroke-linejoin:miter;stroke-miterlimit:4;stroke-opacity:1;stroke-dasharray:none" />
    <path
       d="m 340.81851,371.58893 -5.05264,0 0,-3.54297"
       id="path6520"
       style="fill:none;stroke:#ff0000;stroke-width:0.001;stroke-linecap:butt;stroke-linejoin:miter;stroke-miterlimit:4;stroke-opacity:1;stroke-dasharray:none" />
    <path
       d="m 352.32707,380.14976 -2.30316,0 0,-3.5433 11.80719,-27.66566 27.71655,0"
       id="path6522"
       style="fill:none;stroke:#ff0000;stroke-width:0.001;stroke-linecap:butt;stroke-linejoin:miter;stroke-miterlimit:4;stroke-opacity:1;stroke-dasharray:none" />
    <path
       d="m 389.67265,359.04908 -28.60625,-0.005 -8.73932,17.56251"
       id="path6524"
       style="fill:none;stroke:#ff0000;stroke-width:0.001;stroke-linecap:butt;stroke-linejoin:miter;stroke-miterlimit:4;stroke-opacity:1;stroke-dasharray:none" />
    <path
       d="m 350.02391,380.14976 -2.30316,0 0,-3.5433 6.34363,-15.09489 L 354,340.11218 389.54765,339.9408"
       id="path6526"
       style="fill:none;stroke:#ff0000;stroke-width:0.001;stroke-linecap:butt;stroke-linejoin:miter;stroke-miterlimit:4;stroke-opacity:1;stroke-dasharray:none" />
    <path
       d="m 376.51776,451.33093 0,2.21866 -25.64276,9e-5 0.11234,13.91254 -2.02067,0 0.002,-16.13129 z"
       id="path6468"
       style="fill:none;stroke:#ff0000;stroke-width:0.001;stroke-linecap:butt;stroke-linejoin:miter;stroke-miterlimit:4;stroke-opacity:1;stroke-dasharray:none;display:inline" />
    <path
       d="m 376.58023,451.30893 0,-2.30316 -35.43307,0"
       id="path6470"
       style="fill:none;stroke:#ff0000;stroke-width:0.001;stroke-linecap:butt;stroke-linejoin:miter;stroke-miterlimit:4;stroke-opacity:1;stroke-dasharray:none;display:inline" />
    <path
       d="m 357.95621,456.82053 2.25,0 0,3.69 -2.25,0"
       id="path6478"
       style="fill:none;stroke:#ff0000;stroke-width:0.001;stroke-linecap:butt;stroke-linejoin:miter;stroke-miterlimit:4;stroke-opacity:1;stroke-dasharray:none;display:inline" />
    <path
       d="m 355.70621,456.82053 2.25,0 0,3.69 -2.25,0"
       id="path6476"
       style="fill:none;stroke:#ff0000;stroke-width:0.001;stroke-linecap:butt;stroke-linejoin:miter;stroke-miterlimit:4;stroke-opacity:1;stroke-dasharray:none;display:inline" />
    <path
       d="m 353.45621,460.51053 0,-3.69 2.25,0 0,3.69 z"
       id="path6474"
       style="fill:none;stroke:#ff0000;stroke-width:0.001;stroke-linecap:butt;stroke-linejoin:miter;stroke-miterlimit:4;stroke-opacity:1;stroke-dasharray:none;display:inline" />
    <path
       d="m 376.58023,449.00577 0,-2.30317 -32.14273,-0.0279 0.0187,-7.40414 -3.26871,0"
       id="path6472"
       style="fill:none;stroke:#ff0000;stroke-width:0.001;stroke-linecap:butt;stroke-linejoin:miter;stroke-miterlimit:4;stroke-opacity:1;stroke-dasharray:none;display:inline" />
    <path
       d="m 344.4562,439.27056 2.25001,-2e-5 0,3.69 -2.25,0"
       id="path6480"
       style="fill:none;stroke:#ff0000;stroke-width:0.001;stroke-linecap:butt;stroke-linejoin:miter;stroke-miterlimit:4;stroke-opacity:1;stroke-dasharray:none;display:inline" />
    <path
       d="m 346.70621,439.27054 2.25,0 0,3.69 -2.25,0"
       id="path6482"
       style="fill:none;stroke:#ff0000;stroke-width:0.001;stroke-linecap:butt;stroke-linejoin:miter;stroke-miterlimit:4;stroke-opacity:1;stroke-dasharray:none;display:inline" />
    <path
       d="m 345.3125,366.29968 -0.1064,-40.92987 8.85828,0 L 354,340.11218"
       id="path6542"
       style="fill:none;stroke:#ff0000;stroke-width:0.001;stroke-linecap:butt;stroke-linejoin:miter;stroke-miterlimit:4;stroke-opacity:1;stroke-dasharray:none" />
    <path
       d="M 342.77333,366.36217 342.5,322.61218 l 51.125,0 -0.125,36.47602"
       id="path6544"
       style="fill:none;stroke:#ff0000;stroke-width:0.001;stroke-linecap:butt;stroke-linejoin:miter;stroke-miterlimit:4;stroke-opacity:1;stroke-dasharray:none" />
    <path
       d="m 372.24754,374.90965 -0.0604,8.89002"
       id="path6548"
       style="fill:none;stroke:#ff0000;stroke-width:0.001;stroke-linecap:butt;stroke-linejoin:miter;stroke-miterlimit:4;stroke-opacity:1;stroke-dasharray:none" />
    <path
       d="m 389.54764,339.9408 10e-6,9 0.125,10.10828 3.82735,0.0391"
       id="path6550"
       style="fill:none;stroke:#ff0000;stroke-width:0.001;stroke-linecap:butt;stroke-linejoin:miter;stroke-miterlimit:4;stroke-opacity:1;stroke-dasharray:none" />
    <path
       d="m 353.45616,439.27072 2.17082,-0.0627 0.0792,3.7525 -2.24999,0.008"
       id="path6552"
       style="fill:none;stroke:#ff0000;stroke-width:0.001;stroke-linecap:butt;stroke-linejoin:miter;stroke-miterlimit:4;stroke-opacity:1;stroke-dasharray:none" />
    <path
       d="m 355.7062,439.27054 2.25001,0 0,3.69 -2.25003,-2e-5"
       id="path6554"
       style="fill:none;stroke:#ff0000;stroke-width:0.001;stroke-linecap:butt;stroke-linejoin:miter;stroke-miterlimit:4;stroke-opacity:1;stroke-dasharray:none" />
    <path
       d="m 376.58023,446.7026 1e-5,-2.30317 -3.68857,0 0,2.30316"
       id="path6556"
       style="fill:none;stroke:#ff0000;stroke-width:0.001;stroke-linecap:butt;stroke-linejoin:miter;stroke-miterlimit:4;stroke-opacity:1;stroke-dasharray:none" />
  </g>
</svg>
